<?xml version="1.0" encoding="UTF-8" standalone="no"?>
<svg width="64" height="64" viewBox="0 0 64 64" xmlns="http://www.w3.org/2000/svg">
  <rect width="64" height="64" rx="14" fill="#f5f8f6"/>
  <path d="M10 18c0-2.2 1.8-4 4-4h12l5 5h19c2.2 0 4 1.8 4 4v5H10z" fill="#8fc7a3"/>
  <path d="M10 25h44v22c0 2.2-1.8 4-4 4H14c-2.2 0-4-1.8-4-4z" fill="#6fad83"/>
  <rect x="25" y="24" width="26" height="31" rx="3" fill="#ffffff" stroke="#4d7f63" stroke-width="2"/>
  <line x1="31" y1="32" x2="45" y2="32" stroke="#4d7f63" stroke-width="2" stroke-linecap="round"/>
  <line x1="31" y1="39" x2="45" y2="39" stroke="#4d7f63" stroke-width="2" stroke-linecap="round"/>
  <line x1="31" y1="46" x2="41" y2="46" stroke="#4d7f63" stroke-width="2" stroke-linecap="round"/>
  <circle cx="15" cy="32" r="2" fill="#ffffff"/>
  <circle cx="15" cy="40" r="2" fill="#ffffff"/>
  <circle cx="15" cy="48" r="2" fill="#ffffff"/>
  <path d="M17 32h6M17 40h6M17 48h6" stroke="#ffffff" stroke-width="2" stroke-linecap="round"/>
</svg>
